<svg xmlns="http://www.w3.org/2000/svg" viewBox="0 0 100 100">
    <defs>
        <linearGradient id="grad1" x1="0%" y1="0%" x2="100%" y2="100%">
            <stop offset="0%" style="stop-color:#4a90e2;stop-opacity:1" />
            <stop offset="100%" style="stop-color:#50e3c2;stop-opacity:1" />
        </linearGradient>
    </defs>
    <path d="M50,5 C25.16,5 5,25.16 5,50 C5,74.84 25.16,95 50,95 L50,95 L50,80 C36.2,80 25,68.8 25,55 C25,41.2 36.2,30 50,30 C63.8,30 75,41.2 75,55 C75,60.07 73.42,64.69 70.71,68.36 L82.36,79.01 C89.92,70.28 95,59.12 95,50 C95,25.16 74.84,5 50,5 Z" fill="url(#grad1)"/>
</svg>